<svg viewBox="0 0 1200 630" xmlns="http://www.w3.org/2000/svg">
  <rect width="1200" height="630" fill="#ede6d6"/>
  <circle cx="945" cy="160" r="60" fill="none" stroke="#a07c33" stroke-width="2.5"/>
  <g fill="none" stroke="#1e211c" stroke-width="3" stroke-linejoin="round" stroke-linecap="round">
    <path d="M0,460 L180,240 L300,380 L460,180 L620,400 L760,260 L900,440 L1050,300 L1200,470"/>
    <path d="M0,500 L150,360 L260,460 L420,300 L560,470 L700,350 L860,480 L1010,370 L1200,500"/>
  </g>
  <path d="M0,520 C220,470 420,560 620,510 C840,460 980,540 1200,500 L1200,630 L0,630 Z" fill="none" stroke="#445d4e" stroke-width="2"/>
  <line x1="0" y1="560" x2="1200" y2="560" stroke="#8a8677" stroke-width="1" opacity="0.4"/>
</svg>
